<?xml version="1.0" standalone="no"?><!DOCTYPE svg PUBLIC "-//W3C//DTD SVG 1.1//EN" "http://www.w3.org/Graphics/SVG/1.1/DTD/svg11.dtd"><svg t="1542804691714" class="icon" style="" viewBox="0 0 1024 1024" version="1.1" xmlns="http://www.w3.org/2000/svg" p-id="3608" xmlns:xlink="http://www.w3.org/1999/xlink" width="16" height="16"><defs><style type="text/css"></style></defs><path d="M281.400547 797.012815c-102.289216 0-185.512663-62.969971-185.512662-140.37775S179.111332 516.242981 281.400547 516.242981s185.512663 62.984306 185.512663 140.392084-83.223447 140.37775-185.512663 140.37775z m0-252.475787c-86.691347 0-157.218616 50.288128-157.218615 112.098037s70.527269 112.083703 157.218615 112.083702 157.218616-50.273793 157.218616-112.083702c0-61.810933-70.527269-112.098037-157.218616-112.098037zM741.770106 797.012815c-102.289216 0-185.512663-62.969971-185.512663-140.37775s83.223447-140.392084 185.512663-140.392084 185.512663 62.984306 185.512662 140.392084-83.223447 140.37775-185.512662 140.37775z m0-252.475787c-86.691347 0-157.218616 50.288128-157.218616 112.098037s70.527269 112.083703 157.218616 112.083702 157.218616-50.273793 157.218615-112.083702c0-61.810933-70.527269-112.098037-157.218615-112.098037z" p-id="3609" fill="#FFFFFF"></path><path d="M446.936183 630.275137c-6.147407 0-11.812565-4.034108-13.594125-10.236805-2.155279-7.502008 2.168589-15.349065 9.684931-17.504344 45.148223-13.000272 93.225783-14.105044 139.107108-3.204761 7.598253 1.795895 12.295839 9.421793 10.48561 17.03438-1.795895 7.584942-9.353192 12.336794-17.034381 10.48561-41.12845-9.767866-84.273953-8.786984-124.738925 2.874046a14.267842 14.267842 0 0 1-3.910218 0.551874zM119.194586 630.275137c-2.251524 0-4.531716-0.538564-6.65935-1.672005-6.89382-3.689059-9.491417-12.268194-5.802358-19.147679l162.19265-303.012719c1.727295-3.204761 42.302846-77.365799 99.153055-77.365799h0.621499c33.958181 0.317404 64.518086 26.415217 90.8217 77.573648 3.564145 6.94911 0.829347 15.472955-6.119763 19.051434-7.0044 3.564145-15.487289 0.815013-19.051434-6.119762-14.519718-28.224423-37.743485-61.948134-65.926952-62.210249h-0.34505c-33.294703 0-64.848801 45.037644-74.216328 62.445742L131.682916 622.800774a14.143952 14.143952 0 0 1-12.48833 7.474363zM903.450814 628.409618a14.146 14.146 0 0 1-12.489354-7.474363l-162.178316-302.998384c-9.408482-17.37943-41.058825-62.418097-74.201993-62.418097h-0.387029c-28.155823 0.28976-51.379589 33.999136-65.884973 62.210248-3.564145 6.963444-12.129969 9.712576-19.051434 6.119763-6.94911-3.578479-9.684931-12.102325-6.119762-19.051434 26.317948-51.15843 56.877854-77.255219 90.836034-77.573648h0.608188c56.850209 0 97.42576 74.161038 99.13872 77.338154l162.192651 303.026029c3.689059 6.880509 1.091462 15.459645-5.802358 19.14768a14.102996 14.102996 0 0 1-6.660374 1.674052z" p-id="3610" fill="#FFFFFF"></path></svg>