<?xml version="1.0" standalone="no"?><!DOCTYPE svg PUBLIC "-//W3C//DTD SVG 1.1//EN" "http://www.w3.org/Graphics/SVG/1.1/DTD/svg11.dtd"><svg t="1542892076643" class="icon" style="" viewBox="0 0 1024 1024" version="1.1" xmlns="http://www.w3.org/2000/svg" p-id="5163" xmlns:xlink="http://www.w3.org/1999/xlink" width="32" height="32"><defs><style type="text/css"></style></defs><path d="M838.016 539.744a205.952 205.952 0 0 1-192.96-205.472c0-47.392 16.16-90.912 43.04-125.728-71.616-19.936-73.6-0.288-134.688 29.92-47.904 10.016-44.512-55.552-105.024-25.312 30.784 65.664 56 83.232 61.6 106.368-7.008 0.768-12.416 5.088-12.416 10.368 0 5.248 5.408 9.6 12.416 10.336-0.192 1.024-0.32 1.984-0.608 3.168-4.704 18.496-48.736 48.128-86.208 75.904v268c0 21.696-14.752 39.232-32.96 39.232h-115.52c-11.456 110.464 21.28 211.68 159.488 216.576 132.192 4.608 148.992 4.608 148.992 4.608s16.8 0 149.024-4.608c219.392-7.776 173.28-258.4 105.824-403.36z m-158.112 107.712v47.808h-68.448v19.584h67.712l0.256 48.032-67.968-0.192v57.504l-53.568-0.256v-57.248h-67.84V714.88h67.84v-19.584h-67.84v-47.808l60.16-0.256-91.008-126.016h60.16l67.552 88.384 60.16-89.152H707.2l-87.904 126.784 60.608 0.224z" p-id="5164" fill="#ffffff"></path><path d="M379.68 86.88H33.856c-18.24 0-32.96 17.568-32.96 39.168v548.064c0 21.6 14.72 39.104 32.96 39.104h345.856c18.208 0 32.96-17.504 32.96-39.104V126.048c-0.032-21.6-14.752-39.168-32.992-39.168z m-247.008 567.68c0 10.784-7.36 19.552-16.448 19.552H66.752c-9.056 0-16.448-8.8-16.448-19.552v-58.752c0-10.816 7.36-19.616 16.448-19.616H116.16c9.12 0 16.512 8.8 16.512 19.616v58.752z m0-137.024c0 10.816-7.36 19.584-16.448 19.584H66.752c-9.056 0-16.448-8.768-16.448-19.584v-58.72c0-10.784 7.36-19.52 16.448-19.52H116.16c9.12 0 16.512 8.736 16.512 19.52v58.72z m0-137.024c0 10.816-7.36 19.616-16.448 19.616H66.752c-9.056 0-16.448-8.768-16.448-19.616v-58.72c0-10.784 7.36-19.552 16.448-19.552H116.16c9.12 0 16.512 8.768 16.512 19.552v58.72z m98.784 293.6H182.048c-9.12 0-16.448-8.8-16.448-19.552v-58.752c0-10.816 7.392-19.616 16.448-19.616h49.408c9.12 0 16.448 8.8 16.448 19.616v58.752h0.032c0.032 10.784-7.36 19.552-16.48 19.552z m0-136.992H182.048c-9.12 0-16.448-8.768-16.448-19.584v-58.72c0-10.784 7.392-19.52 16.448-19.52h49.408c9.12 0 16.448 8.736 16.448 19.52v58.72h0.032c0.032 10.816-7.36 19.584-16.48 19.584z m0-137.024H182.048c-9.12 0-16.448-8.768-16.448-19.616v-58.72c0-10.784 7.392-19.552 16.448-19.552h49.408c9.12 0 16.448 8.768 16.448 19.552v58.72h0.032c0.032 10.848-7.36 19.616-16.48 19.616z m131.776 254.464c0 10.784-7.36 19.552-16.448 19.552H297.344c-9.12 0-16.48-8.8-16.48-19.552v-58.752c0-10.816 7.36-19.616 16.48-19.616h49.408c9.056 0 16.448 8.8 16.448 19.616v58.752z m0-137.024c0 10.816-7.36 19.584-16.448 19.584H297.344c-9.12 0-16.48-8.768-16.48-19.584v-58.72c0-10.784 7.36-19.52 16.48-19.52h49.408c9.056 0 16.448 8.736 16.448 19.52v58.72z m0-137.024c0 10.816-7.36 19.616-16.448 19.616H297.344c-9.12 0-16.48-8.768-16.48-19.616v-58.72c0-10.784 7.36-19.552 16.48-19.552h49.408c9.056 0 16.448 8.768 16.448 19.552v58.72z m0-137.056H50.304V145.664h312.896v97.792zM851.168 164.608a169.632 169.632 0 1 0 0 339.264 169.632 169.632 0 0 0 0-339.264z m116.256 148.8c0 1.344-1.408 2.72-2.752 2.72h-19.2c-1.376 0-2.784 1.376-4.128 2.752l-16.48 17.792v4.096l13.728 27.424c1.344 1.344 2.752 2.72 4.096 2.72h8.224a2.88 2.88 0 0 1 2.72 2.752v21.952c0 1.344-1.344 2.72-2.72 2.72h-21.92c-1.344 0-4.128-1.376-4.128-2.72l-17.856-35.648c0-1.376-1.344-1.376-2.72 0l-31.52 35.648c0 1.344-2.752 2.72-4.128 2.72h-21.92c-1.376 0-2.72-1.376-2.72-2.72v-21.952c0-1.376 1.344-2.752 2.72-2.752h19.2c1.408 0 2.72-1.376 4.096-1.376l24.672-28.768v-4.096l-8.192-17.792c-1.408-1.344-2.752-2.752-4.16-2.752h-21.984c-1.344 0-2.688-1.376-2.688-2.72 0 1.344-1.376 2.72-2.752 2.72h-31.488l-20.64 82.24c-2.656 13.696-6.784 26.016-13.696 32.896-5.44 6.848-16.384 8.224-27.392 8.224h-13.696v-27.424h13.696s11.04 2.72 15.136-13.696l20.544-82.24h-32.864c-1.408 0-2.784-1.376-2.784-2.72v-21.92c0-1.376 1.376-2.752 2.784-2.752h39.744l6.848-27.392c4.096-13.728 10.976-21.952 17.792-27.424 26.048-21.952 56.224-12.352 69.952-9.6v23.296c-13.728-2.688-34.272-9.6-49.376 1.376-4.096 2.752-10.944 9.632-12.32 13.728l-6.816 26.016h24.64c1.376 0 2.752 1.376 2.752 2.752 0-1.376 1.344-2.752 2.688-2.752h35.68c1.408 0 2.752 1.376 4.128 2.752l12.32 24.672c0 1.376 1.376 1.376 2.752 0l23.328-24.672c0-1.376 2.752-2.752 4.096-2.752h21.984c1.344 0 2.752 1.376 2.752 2.752v21.92z" p-id="5165" fill="#ffffff"></path></svg>